HIERARCHY
ROOT Hips
{
	OFFSET 0.00000 0.00000 0.00000
	CHANNELS 6 Xposition Yposition Zposition Zrotation Yrotation Xrotation 
	JOINT LHipJoint
	{
		OFFSET 0 0 0
		CHANNELS 3 Zrotation Yrotation Xrotation
		JOINT LeftUpLeg
		{
			OFFSET 1.55766 -1.60504 1.11378
			CHANNELS 3 Zrotation Yrotation Xrotation
			JOINT LeftLeg
			{
				OFFSET 2.29047 -6.29302 0.00000
				CHANNELS 3 Zrotation Yrotation Xrotation
				JOINT LeftFoot
				{
					OFFSET 2.52265 -6.93093 0.00000
					CHANNELS 3 Zrotation Yrotation Xrotation
					JOINT LeftToeBase
					{
						OFFSET 0.17633 -0.48446 2.02656
						CHANNELS 3 Zrotation Yrotation Xrotation
						End Site
						{
							OFFSET 0.00000 -0.00000 1.04989
						}
					}
				}
			}
		}
	}
	JOINT RHipJoint
	{
		OFFSET 0 0 0
		CHANNELS 3 Zrotation Yrotation Xrotation
		JOINT RightUpLeg
		{
			OFFSET -1.48599 -1.60504 1.11378
			CHANNELS 3 Zrotation Yrotation Xrotation
			JOINT RightLeg
			{
				OFFSET -2.27280 -6.24448 0.00000
				CHANNELS 3 Zrotation Yrotation Xrotation
				JOINT RightFoot
				{
					OFFSET -2.50834 -6.89161 0.00000
					CHANNELS 3 Zrotation Yrotation Xrotation
					JOINT RightToeBase
					{
						OFFSET -0.26967 -0.74090 2.08741
						CHANNELS 3 Zrotation Yrotation Xrotation
						End Site
						{
							OFFSET -0.00000 -0.00000 1.10614
						}
					}
				}
			}
		}
	}
	JOINT LowerBack
	{
		OFFSET 0 0 0
		CHANNELS 3 Zrotation Yrotation Xrotation
		JOINT Spine
		{
			OFFSET 0.06481 2.02437 -0.08472
			CHANNELS 3 Zrotation Yrotation Xrotation
			JOINT Spine1
			{
				OFFSET 0.00015 1.96711 0.18069
				CHANNELS 3 Zrotation Yrotation Xrotation
				JOINT Neck
				{
					OFFSET 0 0 0
					CHANNELS 3 Zrotation Yrotation Xrotation
					JOINT Neck1
					{
						OFFSET -0.29961 1.68293 -0.13041
						CHANNELS 3 Zrotation Yrotation Xrotation
						JOINT Head
						{
							OFFSET 0.59697 1.61501 -0.14669
							CHANNELS 3 Zrotation Yrotation Xrotation
							End Site
							{
								OFFSET 0.22973 1.74906 -0.10148
							}
						}
					}
				}
				JOINT LeftShoulder
				{
					OFFSET 0 0 0
					CHANNELS 3 Zrotation Yrotation Xrotation
					JOINT LeftArm
					{
						OFFSET 3.37968 1.02893 0.31147
						CHANNELS 3 Zrotation Yrotation Xrotation
						JOINT LeftForeArm
						{
							OFFSET 5.19807 -0.00000 -0.00000
							CHANNELS 3 Zrotation Yrotation Xrotation
							JOINT LeftHand
							{
								OFFSET 3.09370 -0.00000 -0.00000
								CHANNELS 3 Zrotation Yrotation Xrotation
								JOINT LeftFingerBase
								{
									OFFSET 0 0 0
									CHANNELS 3 Zrotation Yrotation Xrotation
									JOINT LeftHandIndex1
									{
										OFFSET 0.67263 -0.00000 -0.00000
										CHANNELS 3 Zrotation Yrotation Xrotation
										End Site
										{
											OFFSET 0.54229 -0.00000 -0.00000
										}
									}
								}
								JOINT LThumb
								{
									OFFSET 0 0 0
									CHANNELS 3 Zrotation Yrotation Xrotation
									End Site
									{
										OFFSET 0.55057 -0.00000 0.55057
									}
								}
							}
						}
					}
				}
				JOINT RightShoulder
				{
					OFFSET 0 0 0
					CHANNELS 3 Zrotation Yrotation Xrotation
					JOINT RightArm
					{
						OFFSET -3.38254 0.96355 -0.16120
						CHANNELS 3 Zrotation Yrotation Xrotation
						JOINT RightForeArm
						{
							OFFSET -5.45222 -0.00000 -0.00000
							CHANNELS 3 Zrotation Yrotation Xrotation
							JOINT RightHand
							{
								OFFSET -3.01284 -0.00000 -0.00000
								CHANNELS 3 Zrotation Yrotation Xrotation
								JOINT RightFingerBase
								{
									OFFSET 0 0 0
									CHANNELS 3 Zrotation Yrotation Xrotation
									JOINT RightHandIndex1
									{
										OFFSET -0.62230 -0.00000 -0.00000
										CHANNELS 3 Zrotation Yrotation Xrotation
										End Site
										{
											OFFSET -0.50171 -0.00000 -0.00000
										}
									}
								}
								JOINT RThumb
								{
									OFFSET 0 0 0
									CHANNELS 3 Zrotation Yrotation Xrotation
									End Site
									{
										OFFSET -0.50937 -0.00000 0.50937
									}
								}
							}
						}
					}
				}
			}
		}
	}
}
MOTION
Frames: 8
Frame Time: 0.0408163
0.00 0.00 0.00 0 0 0 0 0 0 -21 0 0 0 0 0 0 0 0 0 0 0 0 0 0 21 0 0 0 0 0 0 0 0 0 0 0 0 0 0 0 0 0 0 0 0 0 0 -16 0 0 21 0 0 11 0 0 0 -8 0 0 0 0 0 0 0 0 0 0 0 0 0 0 0 0 0 0 0 0 8 0 0 0 0 0 0 0 0 0 0 0 0 0 0 0 0 0
0.00 0.00 0.00 -4.3448 -2.7883 14.4359 0.0000 0.0000 0.0000 -14.0985 0.3136 -20.9154 1.8809 8.6134 24.5933 0.9131 -5.5897 -17.0488 1.8345 -8.5124 -24.2816 0.0000 0.0000 0.0000 24.5733 -6.3900 -22.2480 -1.5118 -7.7651 22.0030 0.5889 24.0899 -12.6400 -0.5996 4.9568 -13.7854 5.4611 2.4084 -10.7007 -0.5011 2.7793 -8.8367 -3.3578 1.1214 -3.0006 -29.7417 -9.3709 16.8226 45.8455 -15.7142 -15.6718 25.4346 -10.4104 0.3045 0.0000 0.0000 0.0000 -85.4557 0.0162 47.3746 76.3731 -59.2866 -48.2270 -0.0000 0.0000 -57.9167 31.8166 -15.0686 -9.1627 -7.1250 0.0000 -0.0000 2.8220 12.4155 -2.1520 0.0000 0.0000 0.0000 90.2780 7.6705 45.5579 -53.7776 54.4099 -29.2194 0.0000 -0.0000 -27.3029 -9.4112 -20.9605 3.3932 7.1250 -0.0000 -0.0000 19.0216 -50.2140 -2.5246
0.00 0.00 0.00 -4.0565 -1.9811 16.2898 0.0000 0.0000 0.0000 -13.6733 -2.1445 -24.3018 1.8680 8.5856 24.5075 0.6709 -4.8307 -14.5928 1.8524 -8.5517 -24.4027 0.0000 0.0000 0.0000 25.2042 -5.4503 -26.2097 -1.5438 -7.8431 22.2386 0.8328 23.7990 -10.2756 -0.5295 4.6631 -12.9502 4.4727 1.5268 -4.0951 -0.1036 2.0161 -7.4277 -2.6169 0.7658 -5.2695 -28.5312 -10.6237 12.3276 47.3112 -15.1653 -19.7076 25.8025 -10.0506 0.1876 0.0000 0.0000 0.0000 -89.0413 -30.7958 48.8795 60.1350 -56.3458 -34.4535 -0.0000 0.0000 -61.2226 34.7321 -26.5088 -17.1935 -7.1250 0.0000 -0.0000 2.7914 -1.2413 -2.8545 0.0000 0.0000 0.0000 98.4120 36.9970 44.1960 -45.0213 50.7789 -22.2553 0.0000 -0.0000 -32.9901 -7.1433 -17.0108 2.0998 7.1250 -0.0000 -0.0000 19.4468 -46.1562 -0.5766
0.00 0.00 0.00 -4.6565 -1.8671 27.7071 0.0000 0.0000 0.0000 -9.6553 -8.9010 -39.8828 1.9062 8.6680 24.7622 0.2484 -0.7213 -9.1859 1.8441 -8.5335 -24.3465 0.0000 0.0000 0.0000 31.1523 -5.4475 -45.0267 -1.4562 -7.6274 21.5878 3.3991 31.3334 4.8709 -0.0129 -0.7320 2.0118 2.9982 1.3616 7.7428 -0.7145 2.1554 -6.0207 -2.8147 0.7847 -10.6754 -24.2260 -13.1872 4.3298 52.0828 -13.4701 -32.3880 29.8623 -9.8463 -1.6801 -0.0000 -0.0000 0.0000 -105.3601 -66.8392 64.1050 27.2108 -38.3795 -9.6297 -0.0000 0.0000 -70.1184 25.1771 -22.5176 -10.2053 -7.1250 0.0000 -0.0000 -2.3485 5.3851 2.1196 -0.0000 -0.0000 0.0000 125.9358 69.0211 61.2459 -24.9615 36.1646 -8.2672 0.0000 -0.0000 -32.1460 -6.0821 -14.5530 1.5337 7.1250 -0.0000 -0.0000 19.4894 -43.7091 0.6470
0.00 0.00 0.00 -5.1626 -1.7747 35.5052 0.0000 0.0000 0.0000 -7.5158 -9.3587 -49.3770 1.7415 8.3056 23.6462 0.1327 -1.7328 -6.4947 1.6814 -8.1684 -23.2266 0.0000 0.0000 0.0000 42.5997 -10.8145 -58.7593 -1.2512 -7.0917 19.9875 7.9418 43.1357 18.5812 -0.2893 -3.4592 9.5599 3.1597 0.7085 10.8093 -0.9023 1.3525 -4.6337 -3.0325 0.3815 -11.0116 -24.5683 -12.3244 4.4393 51.3322 -12.3112 -32.3896 30.3769 -9.2214 -2.4814 0.0000 -0.0000 0.0000 -110.1622 -58.0850 66.4918 74.1760 -59.0324 -46.3405 -0.0000 0.0000 -47.9615 37.8073 -31.0990 -21.8388 -7.1250 0.0000 -0.0000 3.5069 -7.3190 -3.9321 0.0000 -0.0000 0.0000 128.9782 59.1124 76.5147 -74.0242 59.0133 -46.2104 0.0000 -0.0000 -24.3745 -16.2958 -18.5371 5.3099 7.1250 -0.0000 -0.0000 11.5723 -48.8870 -1.1231
0.00 0.00 0.00 -4.8419 -2.0116 33.6449 0.0000 0.0000 0.0000 -8.4911 -8.2250 -47.0667 1.8747 8.6001 24.5522 0.1591 -2.2693 -7.0884 1.8888 -8.6305 -24.6461 0.0000 0.0000 0.0000 35.7013 -5.8680 -52.3220 -1.2992 -7.2214 20.3729 4.6441 34.9161 13.2407 -0.3328 -3.7076 10.2554 3.1576 1.9451 9.2068 -1.0074 2.9687 -5.0748 -3.3929 1.1695 -10.4167 -28.1037 -11.3286 9.4455 48.4428 -14.7497 -22.0603 26.4411 -10.0039 0.2521 0.0000 0.0000 0.0000 -91.8012 -32.7105 66.5775 86.2343 -59.9463 -56.7394 -0.0000 0.0000 -42.8100 42.8521 -32.0627 -26.2187 -7.1250 0.0000 -0.0000 5.9796 -10.3364 -6.9902 0.0000 0.0000 0.0000 99.5486 38.1427 61.3052 -88.6814 59.9934 -58.8581 0.0000 -0.0000 -21.5025 -22.9336 -21.2064 8.7016 7.1250 -0.0000 -0.0000 5.9381 -52.7294 -1.1327
0.00 0.00 0.00 -4.8239 -1.6829 22.9187 0.0000 0.0000 0.0000 -5.7704 -15.2195 -40.1595 4.8483 13.2109 40.1631 0.3863 -1.1918 -11.3848 1.6888 -8.1854 -23.2787 0.0000 0.0000 0.0000 23.8068 8.6230 -34.5002 -2.3583 -9.5756 27.6131 -0.1385 12.9342 -10.7645 -1.4023 7.4909 -21.1780 5.9908 1.5331 8.9620 -0.0844 2.8337 -4.2209 -3.9305 1.0036 -9.2711 -29.9458 -10.4801 9.3378 44.0490 -16.2649 -11.0379 21.7999 -9.8182 2.9141 -0.0000 0.0000 0.0000 -75.4524 12.1711 72.6093 69.5992 -58.3675 -42.4292 -0.0000 0.0000 -43.9596 28.5434 -24.7616 -12.8343 -7.1250 0.0000 -0.0000 -0.5811 2.2783 0.5576 -0.0000 0.0000 0.0000 75.8788 -6.1246 68.2037 -68.8094 58.2334 -41.7573 0.0000 -0.0000 -34.1708 -20.3002 -29.3677 10.2823 7.1250 -0.0000 -0.0000 12.4869 -60.5102 -4.7657
0.00 0.00 0.00 -5.2003 -28.3758 17.5218 0.0000 0.0000 0.0000 -12.1656 -8.0194 -30.2514 2.4820 9.8051 28.3480 0.5184 -2.8208 -12.9264 2.2285 -9.3267 -26.8227 0.0000 0.0000 0.0000 14.8052 20.0397 -29.5753 -2.9287 -10.5787 30.8718 0.1203 17.7512 -11.3207 -1.4559 7.6265 -21.5852 1.8490 2.1238 2.5656 -0.1715 2.9431 -6.5049 -1.4921 1.3115 -8.1535 -28.0643 -6.2985 7.1557 38.7217 -13.1105 4.8311 19.2871 -7.3903 5.0860 0.0000 0.0000 0.0000 -78.8427 9.6808 58.2244 51.1270 -53.4400 -27.0768 -0.0000 0.0000 -54.7013 31.4949 -16.1444 -9.6681 -7.1250 0.0000 -0.0000 2.4749 11.2417 -1.9468 0.0000 0.0000 0.0000 51.4730 3.4461 59.6336 -86.8155 59.9616 -57.2425 0.0000 -0.0000 -39.9259 0.3290 -24.1658 -0.1347 7.1250 -0.0000 -0.0000 29.7723 -51.5726 -5.2069
